<?xml version="1.0" encoding="UTF-8"?>
<svg id="Layer_2" data-name="Layer 2" xmlns="http://www.w3.org/2000/svg" viewBox="0 0 397.94 387.37">
  <defs>
    <style>
      .cls-1 {
        fill: #f6ce3d;
      }

      .cls-2 {
        fill: #b2dff6;
      }

      .cls-3 {
        fill: #ecba3f;
      }

      .cls-4 {
        fill: #edd875;
      }

      .cls-5 {
        fill: #efb42a;
      }

      .cls-6 {
        fill: #f9af14;
      }

      .cls-7 {
        fill: #fbd03a;
      }

      .cls-8 {
        fill: #f8d85d;
      }
    </style>
  </defs>
  <g id="Layer_1-2" data-name="Layer 1">
    <g id="Layer_6" data-name="Layer 6">
      <g>
        <path class="cls-7" d="M32.78,85.55C66.06,36.63,122.08,1.86,181.92,0c-27.11,25.62-47.64,58.65-55.66,95.31-3.81-4.73-7.62-9.39-11.56-14-1.8,18.85,1.16,37.67,1.1,56.51.15,21.38-1.25,42.76-.52,64.17,2.01-5.52,4.03-11.01,6.13-16.47,8.33,12.38,12.35,26.81,18.18,40.35,3.93,9.76,14.09,15.16,18.24,24.83,4.09,9,6.71,18.57,9.79,27.97,18.76,1.43,37.57,8.97,49.86,23.61,11.01,4.21,23,5.43,34.13,9.55,13.79,4.97,28.97,5.4,42,12.6-18.02,7.66-37.63,10.22-57.06,10.22-45.26,1.71-91.56-11.35-128.09-38.37-13.94-11.25-26.87-23.85-38.18-37.73-29.67-38.18-42.58-88.14-38.28-136.02,1.1-12.29,1.92-24.64.79-36.96Z"/>
        <path class="cls-2" d="M342.19,39.92c13.39-3.93,22.81-14.58,27.3-27.51,5.03,12.99,15.37,22.72,28.45,27.39-5.34,3.05-11.16,5.15-16.23,8.63-5.92,5.03-8.84,12.47-12.23,19.27-4.3-13.14-13.42-24.37-27.3-27.78Z"/>
        <path class="cls-1" d="M266.64,94.54c7.35-7.69,9.42-18.54,14.85-27.42,3.45,9.55,6.16,19.92,13.36,27.51,7.78,9.12,19.92,11.92,30.65,16.07-11.07,5.86-24.19,9.55-32.02,20.01-6.37,7.47-8.6,17.23-12.05,26.2-5.15-7.75-6.16-17.48-11.77-24.95-7.56-11.25-21.41-14.91-32.85-20.77,10.43-4.48,21.87-8.08,29.83-16.65Z"/>
        <path class="cls-8" d="M114.7,81.31c3.93,4.61,7.75,9.27,11.56,14-4.09,19.7-5.46,40.07-2.5,60.05,6.74,49.1,33.67,95.83,74.72,124.13,33.91,25.25,77.77,36.2,119.61,30.19-1.89,2.5-3.81,4.97-5.7,7.44-6.28,2.44-12.53,4.91-18.79,7.29-13.02-7.2-28.21-7.62-42-12.6-11.13-4.12-23.12-5.34-34.13-9.55-12.29-14.64-31.11-22.17-49.86-23.61-3.08-9.39-5.7-18.97-9.79-27.97-4.15-9.67-14.3-15.07-18.24-24.83-5.83-13.54-9.85-27.97-18.18-40.35-2.1,5.46-4.12,10.95-6.13,16.47-.73-21.41.67-42.79.52-64.17.06-18.85-2.9-37.67-1.1-56.51Z"/>
        <path class="cls-6" d="M22.87,102.47c2.38-6.13,6.37-11.44,9.91-16.93,1.13,12.32.3,24.67-.79,36.96-4.3,47.88,8.6,97.84,38.28,136.02,11.31,13.88,24.25,26.47,38.18,37.73,36.54,27.02,82.83,40.07,128.09,38.37,19.43,0,39.04-2.56,57.06-10.22,6.25-2.38,12.5-4.85,18.79-7.29,2.29,0,6.86.03,9.15.03-4.06,8.72-6.71,18.82-14.06,25.44-9.7,7.17-20.83,11.99-31.26,17.93-33.85,19.73-75.03,21.53-113,16.5-15.01-2.01-31.17-2.87-43.92-11.92-10.92-8.05-24.49-11.5-34.89-20.28-11.59-9.67-22.63-19.98-33.21-30.74-9.55-9.3-14.94-21.71-22.54-32.48-9.82-13.94-13.24-31.32-13.85-48.07,3.05-22.69.76-45.56,1.86-68.32.09-21.1,5.86-41.63,6.19-62.74Z"/>
        <path class="cls-5" d="M2.71,224.83c-6.77-41.33-1.16-85.88,20.16-122.36-.34,21.1-6.1,41.63-6.19,62.74-1.1,22.75,1.19,45.63-1.86,68.32-.37-3.87-.76-7.72-1.13-11.53-3.66.95-7.35,1.86-10.98,2.84Z"/>
        <path class="cls-4" d="M333.53,181.1c9.58-3.45,15.8-11.44,21.23-19.64,4.7,8.3,11.01,15.92,20.19,19.49-8.91,5.86-16.32,13.66-21.41,23.03-3.23-10.34-11.07-17.41-20.01-22.87Z"/>
        <path class="cls-3" d="M2.71,224.83c3.63-.98,7.32-1.89,10.98-2.84.37,3.81.76,7.66,1.13,11.53.61,16.74,4.03,34.13,13.85,48.07,7.59,10.77,12.99,23.18,22.54,32.48,10.58,10.77,21.62,21.07,33.21,30.74,10.4,8.78,23.97,12.23,34.89,20.28,12.75,9.06,28.91,9.91,43.92,11.92,37.97,5.03,79.14,3.23,113-16.5,10.43-5.95,21.56-10.77,31.26-17.93,7.35-6.62,10-16.71,14.06-25.44-2.29,0-6.86-.03-9.15-.03,1.89-2.47,3.81-4.94,5.7-7.44,10.1-2.07,19.95-5.09,29.8-8.2l5.12-1.56c-9.61,15.07-21.07,29.1-34.71,40.75-34.19,29.46-79.2,46.08-124.25,46.6-40.41,1.46-80.3-13.02-113.24-35.74C39.25,321.94,10.73,275.13,2.71,224.83Z"/>
      </g>
    </g>
  </g>
</svg>